<?xml version="1.0" encoding="utf-8"?>
<!-- Generator: Adobe Illustrator 22.0.1, SVG Export Plug-In . SVG Version: 6.00 Build 0)  -->
<svg version="1.1" id="Слой_1" xmlns="http://www.w3.org/2000/svg" xmlns:xlink="http://www.w3.org/1999/xlink" x="0px" y="0px"
	 viewBox="0 0 1253 432" style="enable-background:new 0 0 1253 432;" xml:space="preserve">
<style type="text/css">
	.st0{fill:none;stroke:#F0D6BF;stroke-width:2;stroke-linecap:round;stroke-dasharray:12,24;}
	.st1{fill:none;stroke:#732766;stroke-width:5;}
	.st2{fill:#83B33E;}
	.st3{fill:#FFFFFF;}
	.st4{fill:#4370C2;}
	.st5{fill:#F08E35;}
	.st6{fill:#EC545F;}
	.st7{fill:#1746CA;}
	.st8{fill:#762CCB;}
</style>
<path class="st0" d="M91,332.8c64.8,15,144.3,25.7,203,6.9C502.6,272.9,684.2,58.7,905,21c149.5-25.5,164,42.3,55,42.3
	c-124.8,0-292.3,0-336,0c-48,0-70,16-70,70c0,54,0,165,0,211s31.5,76,83,76c60.4,0,339.7,0,494,0c55.5,0,84-22,84-76.5s0-89.5,0-147
	c0-108.5-37.3-133.5-60-133.5c-74,0-57.7,157,98.5,244.2"/>
<circle class="st1" cx="1137.5" cy="352.8" r="47.5"/>
<path class="st1" d="M1137.5,332.8v40"/>
<path class="st1" d="M1157.5,352.8h-40"/>
<circle class="st2" cx="1137.5" cy="252.7" r="50"/>
<path class="st3" d="M1137.5,224.7l7.2,18l19.4,1.3l-14.9,12.5l4.7,18.8l-16.5-10.3l-16.5,10.3l4.7-18.8l-14.9-12.5l19.4-1.3
	L1137.5,224.7z"/>
<circle class="st4" cx="637" cy="352.7" r="50"/>
<path class="st3" d="M618.8,332.6c-1.8,0.4-2.8,2.1-2.5,3.8l9.1,41c0.4,1.7,2.1,2.8,3.9,2.5c1.8-0.4,2.8-2.1,2.5-3.8l-3.5-15.8
	l31.7-6.9l-10.7-9.2l5.8-12.8l-31.7,6.9l-0.7-3.2C622.3,333.3,620.6,332.2,618.8,332.6z"/>
<path class="st5" d="M611,102.7h152c13.3,0,24,10.7,24,24v152c0,13.3-10.7,24-24,24H611c-13.3,0-24-10.7-24-24v-152
	C587,113.4,597.7,102.7,611,102.7z"/>
<path class="st3" d="M705.1,186.3c3.2,2.1,6.6,3.9,10.3,5.3c2.4,0.9,3.6,3.5,2.6,5.8c-0.6,1.9-2.3,3.1-4.2,3.1
	c-0.6,0-1.3-0.1-1.8-0.3c-4.3-1.5-8.5-3.7-12.4-6.3c-0.4-0.3-0.8-0.6-1.1-0.8c-0.4-0.3-0.7-0.5-1.1-0.8c0,4.1,0.1,8,0.3,12l0.8,9.8
	l3.2,9.7c1,3.3,1.6,6.7,1.7,10.2l0.3,9.3c0.1,2.5-1.9,4.6-4.5,4.7c-2.5,0.1-4.7-1.9-4.7-4.5l-0.3-9.3c-0.1-2.7-0.5-5.2-1.3-7.7
	l-2.3-6.9l-6.2,0.2l-0.7,3.2c-1.3,6-4.4,11.3-8.9,15.5l-4.9,4.5c-1.9,1.6-4.7,1.5-6.5-0.3c-1.6-1.9-1.6-4.7,0.3-6.5l4.9-4.5
	c3.1-2.9,5.2-6.6,6.2-10.7l1.4-6.3l0.1-2.5c0.4-7.6,0.2-15.3-0.5-23c-2.2,1.6-4,4.4-5.2,6.3c-1.8,2.9-3.2,6.2-4,9.7
	c-0.4,2.1-2.3,3.5-4.3,3.6c-0.2,0-0.4,0-0.6-0.1c-0.2,0-0.4-0.1-0.6-0.1c-2.6-0.6-4.2-2.9-3.7-5.4c1.1-4.6,2.9-8.9,5.3-12.8
	c2.4-3.8,7-10.7,15.1-11.9c1.3-0.2,2.4-0.2,3.7-0.1l8.7-0.2l0.6,0l2.7-0.1c1.4,0,2.7,0.4,3.7,1.5C699.5,182,702.1,184.3,705.1,186.3
	z M694.9,165c0.2,5.1-3.9,9.4-9.1,9.5c-5.2,0.1-9.5-3.9-9.6-9.1c-0.2-5.1,3.9-9.4,9.1-9.5C690.4,155.8,694.7,159.8,694.9,165z"/>
<circle class="st6" cx="1137" cy="152.7" r="50"/>
<path class="st3" d="M1156.6,153c-2.7-0.9-5.3,0.5-6.1,1.1l-2.7,2.1l-0.9-3.3c-0.3-1-1.3-3.6-4-4.5c-3.5-1.2-7.4,0.5-8.9,4.9
	c-1.2,3.4-0.6,12.3,7.4,21.5c12.2-1.6,17.8-9,19-12.5C1162,157.8,1160.1,154.1,1156.6,153z M1149.5,134c-5.5-1.9-10.3,1-11.7,2.1
	c-0.4-1.7-2.2-6.8-7.7-8.7c-6.8-2.3-14.2,1.2-16.8,8.9c-2.2,6.3-3.5,20.1,12.3,35c2.6-0.3,4.9-0.7,7.1-1.2c-4-7.5-4.4-14.4-3-18.4
	c2.3-6.5,8.7-9.7,14.8-7.7c3.1,1,4.8,3.2,5.8,5c1.9-0.8,4.5-1.4,7.4-0.5C1158.9,141.9,1155.6,136,1149.5,134z"/>
<path class="st7" d="M811,102.7h252c13.3,0,24,10.7,24,24v252c0,13.3-10.7,24-24,24H811c-13.3,0-24-10.7-24-24v-252
	C787,113.4,797.7,102.7,811,102.7z"/>
<path class="st3" d="M901.4,213.8h71.2c2.7,0,5.3,1.1,7.2,3c1.9,1.9,3,4.5,3,7.2v15.3c-2.7,0-5.3,1.1-7.2,3c-1.9,1.9-3,4.5-3,7.2
	c0,2.7,1.1,5.3,3,7.2c1.9,1.9,4.5,3,7.2,3v15.3c0,2.7-1.1,5.3-3,7.2c-1.9,1.9-4.5,3-7.2,3h-71.2c-2.7,0-5.3-1.1-7.2-3
	c-1.9-1.9-3-4.5-3-7.2v-15.3c2.7,0,5.3-1.1,7.2-3c1.9-1.9,3-4.5,3-7.2c0-2.7-1.1-5.3-3-7.2c-1.9-1.9-4.5-3-7.2-3V224
	c0-2.7,1.1-5.3,3-7.2C896.1,214.9,898.7,213.8,901.4,213.8z"/>
<path class="st7" d="M953.2,221L953.2,221c1.7,0,3,1.3,3,3v8.4c0,1.7-1.3,3-3,3h0c-1.7,0-3-1.3-3-3V224
	C950.2,222.3,951.5,221,953.2,221z"/>
<path class="st7" d="M953.2,242.5L953.2,242.5c1.7,0,3,1.3,3,3v8.4c0,1.7-1.3,3-3,3h0c-1.7,0-3-1.3-3-3v-8.4
	C950.2,243.8,951.5,242.5,953.2,242.5z"/>
<path class="st7" d="M953.2,264L953.2,264c1.7,0,3,1.3,3,3v8.4c0,1.7-1.3,3-3,3h0c-1.7,0-3-1.3-3-3V267
	C950.2,265.4,951.5,264,953.2,264z"/>
<circle class="st8" cx="737" cy="352.7" r="50"/>
<path class="st3" d="M741.4,371.5c1.9,0.5,3.9,0.6,5.7,0.4c1.7,3.3,4.7,4.1,7,4.7c-1.4-1.8-2.6-4.2-2.6-5.9c3-1.4,5.3-3.9,6.2-7.1
	c1.7-6.3-2.8-13-10.1-14.9c-7.3-1.9-14.5,1.6-16.2,7.9C729.7,363,734.2,369.6,741.4,371.5z M722.7,362.3c1.8,1.3,3.8,2.4,6.1,3.2
	c-1.7-3.2-2.2-6.8-1.3-10.3c2.2-8.2,11.7-12.8,21.1-10.3c3.8,1,7,3,9.3,5.5c0.7-9.1-6.3-18.1-16.9-20.9
	c-11.8-3.1-23.6,2.5-26.3,12.7c-1.4,5.1-0.2,10.4,2.9,14.8c-1.5,2.4-5.2,4.8-8.6,6.4C712.7,364.4,717.7,365.7,722.7,362.3z"/>
</svg>
