<?xml version="1.0" encoding="utf-8"?>
<!-- Generator: Adobe Illustrator 22.0.1, SVG Export Plug-In . SVG Version: 6.00 Build 0)  -->
<svg version="1.1" id="Слой_1" xmlns="http://www.w3.org/2000/svg" xmlns:xlink="http://www.w3.org/1999/xlink" x="0px" y="0px"
	 viewBox="0 0 145.3 86.8" style="enable-background:new 0 0 145.3 86.8;" xml:space="preserve">
<style type="text/css">
	.st0{fill:#F7464E;}
	.st1{fill:#FFFFFF;}
</style>
<path class="st0" d="M8,14.5h48c4.4,0,8,3.6,8,8v48c0,4.4-3.6,8-8,8H8c-4.4,0-8-3.6-8-8v-48C0,18.1,3.6,14.5,8,14.5z"/>
<path class="st1" d="M39.8,31.5c0,3,3.9,10.3,6.2,14.2c0.7,1.2,2.4,1.2,3.1,0c2.2-3.9,6.2-11.1,6.2-14.2c0-4.2-3.4-7.7-7.7-7.7
	C43.3,23.8,39.8,27.3,39.8,31.5z M47.5,27.9c2,0,3.6,1.6,3.6,3.6s-1.6,3.6-3.6,3.6c-2,0-3.6-1.6-3.6-3.6S45.5,27.9,47.5,27.9z"/>
<path class="st1" d="M48.2,50.1H33.9c-1.9,0-3.5-1.6-3.5-3.5s1.6-3.5,3.5-3.5h3.9c0.9,0,1.5-0.7,1.5-1.5c0-0.9-0.7-1.5-1.5-1.5h-3.9
	c-3.7,0-6.6,3-6.6,6.6c0,3.7,3,6.6,6.6,6.6h14.3c1.9,0,3.5,1.6,3.5,3.5c0,1.9-1.6,3.5-3.5,3.5H22.6c-0.9,0-1.5,0.7-1.5,1.5
	c0,0.9,0.7,1.5,1.5,1.5h25.6c3.7,0,6.6-3,6.6-6.6C54.9,53.1,51.9,50.1,48.2,50.1z"/>
<path class="st1" d="M15.3,40.3c-4.2,0-7.7,3.4-7.7,7.7c0,3,3.9,10.3,6.2,14.2c0.7,1.2,2.4,1.2,3.1,0c2.2-3.9,6.2-11.1,6.2-14.2
	C23,43.8,19.5,40.3,15.3,40.3z M15.3,51.6c-2,0-3.6-1.6-3.6-3.6s1.6-3.6,3.6-3.6s3.6,1.6,3.6,3.6S17.3,51.6,15.3,51.6z"/>
<g>
	<g>
		<path d="M73.4,42.9h5.5v2.3h-5.5V42.9z M75.3,53.9c-0.5-0.5-0.7-1.3-0.7-2.3v-12h2.7v11.6c0,0.3,0.1,0.5,0.2,0.7
			c0.1,0.2,0.3,0.2,0.5,0.2h0.9v2.6h-1.4C76.5,54.6,75.8,54.4,75.3,53.9z"/>
		<path d="M81.8,42.9h2.8v11.7h-2.8V42.9z M87.6,45.5c-0.3-0.1-0.6-0.2-0.9-0.2c-0.7,0-1.2,0.2-1.6,0.6c-0.4,0.4-0.6,1-0.6,1.7
			L84.4,45c0.3-0.7,0.8-1.2,1.3-1.6c0.5-0.4,1.1-0.6,1.8-0.6c0.5,0,1,0.1,1.4,0.2c0.4,0.2,0.8,0.4,1.1,0.7l-1.6,2.3
			C88.1,45.7,87.9,45.6,87.6,45.5z"/>
		<path d="M92.1,53.9c-0.7-0.6-1-1.5-1-2.7c0-1.2,0.3-2,1-2.6c0.7-0.6,1.7-0.9,3-0.9h3.1l0.2,2.1h-3.3c-0.5,0-0.9,0.1-1.2,0.3
			s-0.4,0.6-0.4,1c0,0.5,0.2,0.8,0.5,1.1c0.3,0.2,0.9,0.4,1.6,0.4c0.9,0,1.5-0.1,1.9-0.3c0.4-0.2,0.6-0.5,0.6-0.9l0.2,1.7
			c-0.1,0.4-0.3,0.7-0.7,0.9c-0.3,0.2-0.7,0.4-1.2,0.6c-0.4,0.1-0.9,0.2-1.5,0.2C93.7,54.8,92.7,54.5,92.1,53.9z M98.1,47.2
			c0-0.7-0.2-1.2-0.6-1.5c-0.4-0.4-0.9-0.5-1.6-0.5c-0.4,0-0.9,0.1-1.3,0.2s-0.8,0.3-1.2,0.6l-1.8-1.5c0.5-0.5,1.1-0.9,1.8-1.2
			c0.7-0.3,1.6-0.4,2.5-0.4c1,0,1.8,0.2,2.5,0.5c0.7,0.3,1.2,0.8,1.6,1.5c0.4,0.6,0.6,1.4,0.6,2.3v7.5h-2.5V47.2z"/>
		<path d="M110.6,42.9h2.7L109,54.6h-2l-4.4-11.7h2.7l2.6,7.8L110.6,42.9z"/>
		<path d="M118.6,54.8c0,0-0.4-0.2-1.2-0.6s-1.4-1-1.8-1.8c-0.4-0.8-0.6-1.7-0.6-2.8v-1.3c0-1.2,0.2-2.1,0.6-3
			c0.4-0.8,1-1.4,1.7-1.9c0.8-0.4,1.7-0.6,2.7-0.6c1,0,1.8,0.2,2.6,0.7c0.7,0.5,1.2,1.2,1.6,2.2c0.4,0.9,0.6,2.1,0.6,3.4v0.8h-7.9
			v-2h5.4l0-0.1c-0.1-0.8-0.3-1.4-0.7-1.9c-0.4-0.4-0.9-0.7-1.5-0.7c-0.8,0-1.4,0.3-1.9,0.8c-0.4,0.5-0.7,1.2-0.7,2.2v1.5
			c0,0.9,0.2,1.6,0.7,2c0.5,0.5,1.2,0.7,2,0.7c0.4,0,0.9-0.1,1.3-0.3c0.4-0.2,0.8-0.4,1.2-0.7l1.8,1.6c-0.6,0.6-1.3,1-2,1.3
			c-0.7,0.3-1.5,0.5-2.2,0.5C119.2,54.8,118.6,54.8,118.6,54.8z"/>
		<path d="M130.4,51.2c0,0.3,0.1,0.5,0.2,0.7s0.3,0.2,0.6,0.2h0.8v2.6h-1.5c-0.9,0-1.6-0.3-2.1-0.8s-0.7-1.3-0.7-2.3V38.3h2.7V51.2z
			"/>
	</g>
</g>
</svg>
